<svg width="100%" height="100%" viewBox="0 0 640 480" fill="none" xmlns="http://www.w3.org/2000/svg">
  <!-- Primary Base Block (Deep Slate / Machine Grounded with Dual Mortise Ports) -->
  <path d="M 70 110 L 270 110 L 270 170 L 350 170 L 350 240 L 270 240 L 270 300 L 330 300 L 330 360 L 270 360 L 270 410 L 70 410 Z" 
        fill="#0F172A" stroke="#007A55" stroke-width="2.5" stroke-linejoin="round" />
  
  <!-- Base Block Inner Chamber Grooves -->
  <rect x="100" y="140" width="130" height="12" rx="2" fill="#007A55" fill-opacity="0.35" />
  <rect x="100" y="165" width="80" height="4" rx="1" fill="#94A3B8" fill-opacity="0.25" />
  <rect x="100" y="270" width="130" height="20" rx="3" fill="#064E3B" fill-opacity="0.6" />
  <rect x="100" y="340" width="140" height="30" rx="4" fill="#064E3B" fill-opacity="0.4" />
  <line x1="100" y1="385" x2="210" y2="385" stroke="#6EE7B7" stroke-width="2" stroke-opacity="0.6" />

  <!-- Secondary Interlocking Block (Emerald Structural Monolith with Dual Tenon Teeth) -->
  <path d="M 285 90 L 530 90 L 530 390 L 345 390 L 345 345 L 285 345 L 285 315 L 345 315 L 345 225 L 285 225 L 285 155 L 365 155 L 365 90 Z" 
        fill="#007A55" stroke="#064E3B" stroke-width="2.5" stroke-linejoin="round" />

  <!-- Primary Tenon Luminous Contact Core (Upper Tenon: Mint Accent) -->
  <polygon points="295,168 355,168 355,215 295,215" fill="#6EE7B7" fill-opacity="0.95" />
  <line x1="305" y1="191" x2="345" y2="191" stroke="#0F172A" stroke-width="2" />

  <!-- Secondary Tenon Contact Pad (Lower Tenon: Light Mint Core) -->
  <polygon points="295,325 335,325 335,350 295,350" fill="#86EFAC" />

  <!-- Precision Tolerance Gap Trackers (Dashed Engineering Guides) -->
  <line x1="277" y1="95" x2="277" y2="405" stroke="#6EE7B7" stroke-width="1.5" stroke-dasharray="4 3" stroke-opacity="0.7" />
  <line x1="357" y1="160" x2="357" y2="235" stroke="#6EE7B7" stroke-width="1.5" stroke-dasharray="3 3" stroke-opacity="0.8" />

  <!-- Right Block Architectural Surface Louvers -->
  <line x1="410" y1="130" x2="495" y2="130" stroke="#86EFAC" stroke-width="2.5" stroke-opacity="0.6" stroke-linecap="round" />
  <line x1="410" y1="155" x2="495" y2="155" stroke="#86EFAC" stroke-width="2.5" stroke-opacity="0.6" stroke-linecap="round" />
  <line x1="410" y1="180" x2="495" y2="180" stroke="#86EFAC" stroke-width="2.5" stroke-opacity="0.6" stroke-linecap="round" />
  <rect x="410" y="240" width="85" height="110" rx="4" fill="#064E3B" fill-opacity="0.5" stroke="#6EE7B7" stroke-width="1.5" />
  <line x1="425" y1="295" x2="480" y2="295" stroke="#FFFFFF" stroke-width="2" stroke-dasharray="6 4" />

  <!-- Alignment Registration Nodes -->
  <circle cx="270" cy="170" r="5" fill="#6EE7B7" stroke="#0F172A" stroke-width="2" />
  <circle cx="350" cy="240" r="5" fill="#6EE7B7" stroke="#0F172A" stroke-width="2" />
  <circle cx="285" cy="155" r="4" fill="#059669" />
  <circle cx="345" cy="225" r="4" fill="#059669" />

  <!-- Precision Calibrated Sub-Axis -->
  <line x1="50" y1="435" x2="550" y2="435" stroke="#007A55" stroke-width="1.2" stroke-opacity="0.5" />
  <line x1="70" y1="430" x2="70" y2="440" stroke="#007A55" stroke-width="2" />
  <line x1="270" y1="430" x2="270" y2="440" stroke="#6EE7B7" stroke-width="2" />
  <line x1="365" y1="430" x2="365" y2="440" stroke="#6EE7B7" stroke-width="2" />
  <line x1="530" y1="430" x2="530" y2="440" stroke="#007A55" stroke-width="2" />
</svg>