<svg width="100%" height="100%" viewBox="0 0 700 440" fill="none" xmlns="http://www.w3.org/2000/svg">
  <!-- Baseline Foundation Rail -->
  <line x1="50" y1="360" x2="650" y2="360" stroke="#0F172A" stroke-width="4" stroke-linecap="round" />
  <line x1="50" y1="375" x2="650" y2="375" stroke="#007A55" stroke-width="1.5" stroke-opacity="0.5" />

  <!-- Ceiling Reference Limit Line -->
  <line x1="50" y1="80" x2="650" y2="80" stroke="#007A55" stroke-width="1.5" stroke-dasharray="6 4" stroke-opacity="0.4" />

  <!-- 17 ARCHITECTURAL MODULAR FINS -->
  <rect x="60" y="280" width="18" height="80" rx="3" fill="#064E3B" />
  <rect x="95" y="240" width="18" height="120" rx="3" fill="#007A55" />
  <rect x="130" y="190" width="18" height="170" rx="3" fill="#007A55" />
  <rect x="165" y="140" width="18" height="220" rx="3" fill="#059669" stroke="#6EE7B7" stroke-width="1.5" />
  <rect x="200" y="105" width="18" height="255" rx="3" fill="#6EE7B7" stroke="#FFFFFF" stroke-width="2" />
  <circle cx="209" cy="95" r="4" fill="#6EE7B7" />

  <rect x="235" y="130" width="18" height="230" rx="3" fill="#059669" />
  <rect x="270" y="180" width="18" height="180" rx="3" fill="#007A55" />
  <rect x="305" y="240" width="18" height="120" rx="3" fill="#064E3B" />
  <rect x="340" y="290" width="18" height="70" rx="3" fill="#0F172A" stroke="#007A55" stroke-width="1.5" />

  <rect x="375" y="250" width="18" height="110" rx="3" fill="#064E3B" />
  <rect x="410" y="200" width="18" height="160" rx="3" fill="#007A55" />
  <rect x="445" y="145" width="18" height="215" rx="3" fill="#059669" />
  <rect x="480" y="100" width="18" height="260" rx="3" fill="#007A55" stroke="#6EE7B7" stroke-width="1.5" />
  <rect x="515" y="80" width="18" height="280" rx="3" fill="#6EE7B7" stroke="#FFFFFF" stroke-width="2.5" />
  <circle cx="524" cy="70" r="5" fill="#FFFFFF" stroke="#007A55" stroke-width="2" />

  <rect x="550" y="120" width="18" height="240" rx="3" fill="#059669" />
  <rect x="585" y="180" width="18" height="180" rx="3" fill="#007A55" />
  <rect x="620" y="240" width="18" height="120" rx="3" fill="#064E3B" />

  <path d="M 69 280 Q 209 70 349 290 Q 524 45 629 240" 
        fill="none" stroke="#FFFFFF" stroke-width="2.5" stroke-linecap="round" />
  <path d="M 69 280 Q 209 70 349 290 Q 524 45 629 240" 
        fill="none" stroke="#6EE7B7" stroke-width="5" stroke-linecap="round" stroke-opacity="0.5" />
</svg>